<svg width="600" height="400" viewBox="0 0 600 400" fill="none" xmlns="http://www.w3.org/2000/svg">
<defs>
<linearGradient id="skyGradient" x1="0%" y1="0%" x2="0%" y2="100%">
<stop offset="0%" style="stop-color:#87ceeb"/>
<stop offset="100%" style="stop-color:#f0e68c"/>
</linearGradient>
</defs>
<rect width="600" height="300" fill="url(#skyGradient)"/>
<rect y="300" width="600" height="100" fill="#8b7355"/>
<ellipse cx="150" cy="250" rx="80" ry="120" fill="#8b4513"/>
<ellipse cx="150" cy="180" rx="100" ry="80" fill="#ff6347"/>
<ellipse cx="450" cy="280" rx="60" ry="100" fill="#8b4513"/>
<ellipse cx="450" cy="220" rx="80" ry="60" fill="#ff8c00"/>
<rect x="200" y="320" width="200" height="60" rx="10" fill="#8b4513"/>
<rect x="210" y="300" width="180" height="40" fill="#f4f1de"/>
<text x="220" y="325" font-family="serif" font-size="14" fill="#2d5a27" font-weight="bold">Åszi Versek</text>
<path d="M100 350 Q 120 340 140 350 Q 160 360 180 350" stroke="#d2691e" stroke-width="3" fill="none"/>
<path d="M420 360 Q 440 350 460 360 Q 480 370 500 360" stroke="#ff6347" stroke-width="3" fill="none"/>
<ellipse cx="80" cy="370" rx="15" ry="8" fill="#ff6347"/>
<ellipse cx="520" cy="380" rx="12" ry="6" fill="#ffa500"/>
<ellipse cx="300" cy="375" rx="10" ry="5" fill="#d2691e"/>
</svg>