<svg width="600" height="400" viewBox="0 0 600 400" fill="none" xmlns="http://www.w3.org/2000/svg">
<rect width="600" height="400" fill="#8b7355"/>
<rect x="50" y="150" width="500" height="200" rx="20" fill="#2c2c2c"/>
<rect x="70" y="120" width="460" height="80" rx="10" fill="#f8f8f8"/>
<rect x="80" y="130" width="440" height="60" fill="#ffffff"/>
<text x="90" y="150" font-family="monospace" font-size="12" fill="#000">
<tspan x="90" dy="0">A költészet maga a lélek,</tspan>
<tspan x="90" dy="15">amely szavakban ölt testet,</tspan>
<tspan x="90" dy="15">s mint a madár éneke,</tspan>
<tspan x="90" dy="15">szabadon szárnyal...</tspan>
</text>
<rect x="100" y="220" width="400" height="80" rx="5" fill="#1a1a1a"/>
<circle cx="120" cy="240" r="8" fill="#d4d4d4"/>
<circle cx="140" cy="240" r="8" fill="#d4d4d4"/>
<circle cx="160" cy="240" r="8" fill="#d4d4d4"/>
<circle cx="180" cy="240" r="8" fill="#d4d4d4"/>
<circle cx="200" cy="240" r="8" fill="#d4d4d4"/>
<circle cx="120" cy="260" r="8" fill="#d4d4d4"/>
<circle cx="140" cy="260" r="8" fill="#d4d4d4"/>
<circle cx="160" cy="260" r="8" fill="#d4d4d4"/>
<circle cx="180" cy="260" r="8" fill="#d4d4d4"/>
<circle cx="200" cy="260" r="8" fill="#d4d4d4"/>
<rect x="250" y="230" width="200" height="20" rx="10" fill="#8b4513"/>
</svg>